<svg version="1.1" id="Layer_1" xmlns="http://www.w3.org/2000/svg" xmlns:xlink="http://www.w3.org/1999/xlink" x="0px" y="0px" width="100%" viewBox="0 0 500 500" enable-background="new 0 0 500 500" xml:space="preserve">

<path fill="#56ABF5" opacity="1.000000" stroke="none" d="
M236.131958,114.040558 
	C240.364029,113.702812 244.132263,113.068619 247.901276,113.063850 
	C277.876465,113.025970 305.596283,120.815834 330.157166,138.196976 
	C340.242279,145.333954 348.719879,154.306122 356.792053,163.848694 
	C364.488007,172.946533 371.026276,182.486511 375.972870,193.197906 
	C381.517029,205.203262 385.649933,217.656281 386.977905,230.904190 
	C387.681793,237.926163 389.074615,244.979187 388.851715,251.976624 
	C387.894867,282.018036 379.418945,309.511353 360.907959,333.741577 
	C345.832855,353.474365 326.915619,368.084259 304.392578,378.001465 
	C293.582428,382.761261 282.246552,386.245911 270.261383,387.045105 
	C263.724091,387.481018 257.187439,389.093994 250.697708,388.861115 
	C229.744751,388.109222 209.664886,384.101105 190.537003,374.514801 
	C174.104691,366.279358 159.861282,355.574768 147.828949,342.101471 
	C131.303406,323.596863 120.113312,302.091125 116.077141,277.362030 
	C114.576790,268.169556 113.033302,258.805054 113.209602,249.551346 
	C113.753059,221.025543 121.716400,194.504776 138.532562,171.295135 
	C159.265274,142.679901 187.073471,124.179253 221.656555,116.245522 
	C226.254211,115.190773 230.994339,114.757065 236.131958,114.040558 
M305.121765,304.617126 
	C313.220337,304.904724 321.530579,306.499786 329.376984,305.229645 
	C351.084625,301.715698 373.347321,281.059570 371.302429,250.631760 
	C369.897461,229.726440 359.409058,214.679810 340.744995,206.095901 
	C322.584229,197.743484 304.486237,199.606537 288.272614,211.486603 
	C271.153992,224.029816 264.191650,241.666290 267.486786,262.371582 
	C270.872284,283.644836 284.001404,297.426361 305.121765,304.617126 
M230.052689,285.938324 
	C226.731750,284.568359 223.410797,283.198395 220.050919,281.812347 
	C214.945648,288.871216 215.106384,290.769348 223.259460,293.292297 
	C228.487778,294.910217 234.410034,295.306427 239.899109,294.833374 
	C249.287704,294.024170 255.627594,286.751831 255.867355,277.321991 
	C256.134125,266.832153 255.850586,256.329315 256.019958,245.835587 
	C256.098083,240.995651 252.755737,242.262283 250.159988,242.157761 
	C247.524765,242.051651 244.688690,241.514343 244.862656,245.873520 
	C245.081696,251.361771 244.967789,256.869629 244.821564,262.364349 
	C244.673004,267.946777 241.853119,271.209930 237.433304,271.247284 
	C233.071167,271.284149 230.994827,268.564362 230.917587,262.509827 
	C230.845337,256.846008 230.780762,251.178741 230.902069,245.517044 
	C230.979431,241.906250 228.623978,241.864822 226.231094,242.158218 
	C223.810532,242.455017 219.919601,240.439972 219.873337,245.287247 
	C219.798630,253.113419 219.562363,260.971161 220.134949,268.761108 
	C220.708633,276.566162 226.809891,281.567963 234.186203,280.252808 
	C237.875839,279.594940 241.244568,277.137268 244.559479,275.586670 
	C244.943527,283.102142 240.852524,286.425690 230.052689,285.938324 
M181.501541,276.071259 
	C185.672409,277.537384 189.752304,279.836517 194.032242,280.303894 
	C204.348785,281.430603 213.118927,274.929993 214.935638,265.723145 
	C217.104340,254.732315 212.464233,245.474533 203.096619,242.102325 
	C193.617447,238.689972 182.488007,241.928864 177.608093,249.428421 
	C173.607605,255.576492 173.024689,269.187744 181.501541,276.071259 
M159.485504,279.018555 
	C163.551758,279.018555 167.618011,279.018555 171.766953,279.018555 
	C171.872238,276.735443 171.815201,275.396912 172.015396,274.098022 
	C172.709213,269.596924 171.070053,267.699493 166.338058,268.183105 
	C162.718079,268.553101 159.019638,268.088196 155.376556,268.318390 
	C151.839111,268.541901 150.779800,267.095032 150.833359,263.682312 
	C150.995087,253.377655 150.600433,243.057434 151.005356,232.766235 
	C151.214523,227.450165 148.231659,227.847107 144.774384,227.854034 
	C141.199463,227.861206 137.970963,227.235718 138.130615,232.925156 
	C138.517548,246.712753 138.253342,260.518341 138.287064,274.316589 
	C138.290588,275.756500 138.531967,277.195831 138.653595,278.532227 
	C139.575668,278.749817 140.055817,278.959229 140.537201,278.962128 
	C146.521179,278.998169 152.505325,279.004181 159.485504,279.018555 
z" data-index="1"></path>
<path fill="#F9FEFE" opacity="1.000000" stroke="none" d="
M304.739685,304.472473 
	C284.001404,297.426361 270.872284,283.644836 267.486786,262.371582 
	C264.191650,241.666290 271.153992,224.029816 288.272614,211.486603 
	C304.486237,199.606537 322.584229,197.743484 340.744995,206.095901 
	C359.409058,214.679810 369.897461,229.726440 371.302429,250.631760 
	C373.347321,281.059570 351.084625,301.715698 329.376984,305.229645 
	C321.530579,306.499786 313.220337,304.904724 304.739685,304.472473 
M288.169678,277.961182 
	C291.507751,268.998749 291.507751,268.998779 301.264160,269.002136 
	C302.097076,269.002441 302.949249,269.117554 303.759827,268.982849 
	C309.049591,268.103943 312.193817,269.964996 313.177277,275.533508 
	C313.409119,276.846191 315.227997,278.653839 316.525604,278.849640 
	C319.716461,279.331116 323.028809,279.007233 326.680450,279.007233 
	C326.285461,277.367065 326.143402,276.385590 325.814697,275.471161 
	C321.196716,262.624390 316.607178,249.766998 311.897736,236.953690 
	C308.548584,227.841278 308.469543,228.036011 298.774414,227.845932 
	C295.068237,227.773285 293.127319,228.796768 291.855957,232.475616 
	C287.017212,246.477112 281.829224,260.357788 276.803955,274.295166 
	C276.324554,275.624847 276.069427,277.035370 275.521088,279.130859 
	C280.044952,278.931732 283.827667,278.765228 288.169678,277.961182 
M330.020416,272.370789 
	C330.079742,279.756775 331.750458,280.671783 341.068329,278.057922 
	C341.068329,262.385162 340.905182,246.583023 341.170654,230.788101 
	C341.247437,226.221008 339.238251,225.747833 335.509247,225.683105 
	C331.563904,225.614594 329.882080,226.558945 329.960083,230.921219 
	C330.201294,244.409775 330.029602,257.905731 330.020416,272.370789 
M357.942902,268.463501 
	C357.945007,256.132538 357.712494,243.794815 358.065948,231.473923 
	C358.205048,226.623581 356.391937,225.235992 352.040436,225.794479 
	C350.464142,225.996811 348.870941,226.067154 347.289215,226.197418 
	C347.289215,243.993729 347.289215,261.232086 347.289215,278.400055 
	C357.777466,280.208771 357.907776,280.107025 357.940521,270.446381 
	C357.941650,270.113098 357.941467,269.779846 357.942902,268.463501 
z" data-index="2"></path>
<path fill="#F5FCFE" opacity="1.000000" stroke="none" d="
M230.476013,285.979126 
	C240.852524,286.425690 244.943527,283.102142 244.559479,275.586670 
	C241.244568,277.137268 237.875839,279.594940 234.186203,280.252808 
	C226.809891,281.567963 220.708633,276.566162 220.134949,268.761108 
	C219.562363,260.971161 219.798630,253.113419 219.873337,245.287247 
	C219.919601,240.439972 223.810532,242.455017 226.231094,242.158218 
	C228.623978,241.864822 230.979431,241.906250 230.902069,245.517044 
	C230.780762,251.178741 230.845337,256.846008 230.917587,262.509827 
	C230.994827,268.564362 233.071167,271.284149 237.433304,271.247284 
	C241.853119,271.209930 244.673004,267.946777 244.821564,262.364349 
	C244.967789,256.869629 245.081696,251.361771 244.862656,245.873520 
	C244.688690,241.514343 247.524765,242.051651 250.159988,242.157761 
	C252.755737,242.262283 256.098083,240.995651 256.019958,245.835587 
	C255.850586,256.329315 256.134125,266.832153 255.867355,277.321991 
	C255.627594,286.751831 249.287704,294.024170 239.899109,294.833374 
	C234.410034,295.306427 228.487778,294.910217 223.259460,293.292297 
	C215.106384,290.769348 214.945648,288.871216 220.050919,281.812347 
	C223.410797,283.198395 226.731750,284.568359 230.476013,285.979126 
z" data-index="3"></path>
<path fill="#F6FDFD" opacity="1.000000" stroke="none" d="
M181.215637,275.846069 
	C173.024689,269.187744 173.607605,255.576492 177.608093,249.428421 
	C182.488007,241.928864 193.617447,238.689972 203.096619,242.102325 
	C212.464233,245.474533 217.104340,254.732315 214.935638,265.723145 
	C213.118927,274.929993 204.348785,281.430603 194.032242,280.303894 
	C189.752304,279.836517 185.672409,277.537384 181.215637,275.846069 
M185.739746,258.199158 
	C185.196793,265.492767 187.468872,269.733063 192.537064,270.884766 
	C198.180847,272.167297 202.600952,269.581818 204.050888,264.149963 
	C205.781723,257.665894 203.122864,251.993729 197.595245,250.378098 
	C192.413391,248.863525 187.997833,251.525192 185.739746,258.199158 
z" data-index="4"></path>
<path fill="#F3FBFE" opacity="1.000000" stroke="none" d="
M158.987473,279.018250 
	C152.505325,279.004181 146.521179,278.998169 140.537201,278.962128 
	C140.055817,278.959229 139.575668,278.749817 138.653595,278.532227 
	C138.531967,277.195831 138.290588,275.756500 138.287064,274.316589 
	C138.253342,260.518341 138.517548,246.712753 138.130615,232.925156 
	C137.970963,227.235718 141.199463,227.861206 144.774384,227.854034 
	C148.231659,227.847107 151.214523,227.450165 151.005356,232.766235 
	C150.600433,243.057434 150.995087,253.377655 150.833359,263.682312 
	C150.779800,267.095032 151.839111,268.541901 155.376556,268.318390 
	C159.019638,268.088196 162.718079,268.553101 166.338058,268.183105 
	C171.070053,267.699493 172.709213,269.596924 172.015396,274.098022 
	C171.815201,275.396912 171.872238,276.735443 171.766953,279.018555 
	C167.618011,279.018555 163.551758,279.018555 158.987473,279.018250 
z" data-index="5"></path>
<path fill="#5DACF1" opacity="1.000000" stroke="none" d="
M287.890015,278.279968 
	C283.827667,278.765228 280.044952,278.931732 275.521088,279.130859 
	C276.069427,277.035370 276.324554,275.624847 276.803955,274.295166 
	C281.829224,260.357788 287.017212,246.477112 291.855957,232.475616 
	C293.127319,228.796768 295.068237,227.773285 298.774414,227.845932 
	C308.469543,228.036011 308.548584,227.841278 311.897736,236.953690 
	C316.607178,249.766998 321.196716,262.624390 325.814697,275.471161 
	C326.143402,276.385590 326.285461,277.367065 326.680450,279.007233 
	C323.028809,279.007233 319.716461,279.331116 316.525604,278.849640 
	C315.227997,278.653839 313.409119,276.846191 313.177277,275.533508 
	C312.193817,269.964996 309.049591,268.103943 303.759827,268.982849 
	C302.949249,269.117554 302.097076,269.002441 301.264160,269.002136 
	C291.507751,268.998779 291.507751,268.998749 287.890015,278.279968 
M301.471710,260.180054 
	C303.536438,260.180054 305.601166,260.180054 308.621735,260.180054 
	C306.071045,252.556168 303.878601,246.003036 301.686157,239.449905 
	C301.238953,239.484039 300.791748,239.518188 300.344543,239.552338 
	C298.199402,246.169846 296.054260,252.787338 293.657013,260.182556 
	C296.633545,260.182556 298.592041,260.182556 301.471710,260.180054 
z" data-index="6"></path>
<path fill="#5CABF0" opacity="1.000000" stroke="none" d="
M330.019318,271.884796 
	C330.029602,257.905731 330.201294,244.409775 329.960083,230.921219 
	C329.882080,226.558945 331.563904,225.614594 335.509247,225.683105 
	C339.238251,225.747833 341.247437,226.221008 341.170654,230.788101 
	C340.905182,246.583023 341.068329,262.385162 341.068329,278.057922 
	C331.750458,280.671783 330.079742,279.756775 330.019318,271.884796 
z" data-index="7"></path>
<path fill="#5CABF0" opacity="1.000000" stroke="none" d="
M357.942383,268.955017 
	C357.941467,269.779846 357.941650,270.113098 357.940521,270.446381 
	C357.907776,280.107025 357.777466,280.208771 347.289215,278.400055 
	C347.289215,261.232086 347.289215,243.993729 347.289215,226.197418 
	C348.870941,226.067154 350.464142,225.996811 352.040436,225.794479 
	C356.391937,225.235992 358.205048,226.623581 358.065948,231.473923 
	C357.712494,243.794815 357.945007,256.132538 357.942383,268.955017 
z" data-index="8"></path>
<path fill="#5EACF1" opacity="1.000000" stroke="none" d="
M185.808853,257.820190 
	C187.997833,251.525192 192.413391,248.863525 197.595245,250.378098 
	C203.122864,251.993729 205.781723,257.665894 204.050888,264.149963 
	C202.600952,269.581818 198.180847,272.167297 192.537064,270.884766 
	C187.468872,269.733063 185.196793,265.492767 185.808853,257.820190 
z" data-index="9"></path>
<path fill="#F1FCFE" opacity="1.000000" stroke="none" d="
M301.011108,260.181305 
	C298.592041,260.182556 296.633545,260.182556 293.657013,260.182556 
	C296.054260,252.787338 298.199402,246.169846 300.344543,239.552338 
	C300.791748,239.518188 301.238953,239.484039 301.686157,239.449905 
	C303.878601,246.003036 306.071045,252.556168 308.621735,260.180054 
	C305.601166,260.180054 303.536438,260.180054 301.011108,260.181305 
z" data-index="10"></path>
</svg>