<svg version="1.2" xmlns="http://www.w3.org/2000/svg" viewBox="0 0 500 500" width="500" height="500"><style>.a{fill:#56abf5}.b{fill:#fcfdff}.c{fill:#fbfdff}.d{fill:#58acf5}.e{fill:#fafcff}.f{fill:#55abf5}.g{fill:#5aadf5}.h{fill:#f6fafe}.i{fill:#59adf5}</style><path class="a" d="m290 383.1c-40.9 10.4-79.5 6.1-114.7-17.3-30.2-20-50.2-47.9-58.1-83.5-12-53.8 6.2-108.2 53-142.6 23.2-17 49.2-25.4 78.2-25.9 32.3-0.5 61.1 8.6 86.5 28.3 29.2 22.8 47.1 52.6 52 89.5 3.7 27.3 0.3 53.7-11.8 78.7-9.4 19.5-22.6 35.6-39.4 49-13.6 10.8-28.9 18.4-45.7 23.8zm-17-105.5c0 0-0.1-0.1 0 0.7 10 19.8 31.2 31.9 56 27.2 28.4-5.4 47.3-31.2 41.6-62.2-5.1-28.1-33-46.6-61.7-41-25.6 5-46 28.7-41.5 60.1 0.7 5.2 3.7 10.2 5.6 15.2zm-52.7 12.1c1.5 5 6.2 4.8 10 5.6 16.1 3.8 26.4-4.5 26.7-21 0.1-8.4 0-16.9 0-25.4 0-2.8 0-5.5 0-8.2-4.1 0-7.5 0-10.8 0-0.4 7.2-0.6 14-1 20.8-0.2 4.3-2.2 6.8-6.8 6.7-4.4 0-6.4-2.4-6.6-6.5q-0.4-6.9-0.6-13.9c-0.1-2.4 0-4.8 0-7.3-4.2 0-7.4 0-10.9 0 0 8.8-0.7 17.3 0.2 25.6 1.1 9.8 9.1 14.7 18.4 12.5 2.2-0.5 4.2-1.6 6.3-2.4q0.6 0.4 1.1 0.8c-1.3 2.1-2.1 5-4 6.2-6.3 4-12.7 1.7-19-1-1 2.5-1.8 4.6-3 7.5zm-13.1-12.8c8.3-4.3 10.3-11.7 9.6-20.2-0.6-9.1-7.6-16.1-16.3-16.8-11.3-0.9-19 3.8-21.6 13.4-2 7.5-1.2 14.8 4.7 20.3 6.6 6.2 14.5 6.8 23.6 3.3zm-51.5-9.7c-3.3 0.5-3.9-1.3-3.8-4.1 0.1-11.7 0-23.5 0-35.5-4.2 0-7.9 0-11.6 0 0 17 0 33.6 0 50.3 12.2 0 24.1 0 36.2 0 0-3.7 0-7 0-10.7-6.9 0-13.4 0-20.8 0z"/><path class="b" d="m273 277.6c-1.9-5-4.9-10-5.6-15.2-4.5-31.4 15.9-55.1 41.5-60.1 28.7-5.6 56.6 12.9 61.7 41 5.7 31-13.2 56.8-41.6 62.2-24.8 4.7-46-7.4-55.6-27.4 1.7-0.1 3.1-0.1 4.4 0 4.7 0.5 8.9 0.3 9.9-5.9 0.1-0.9 2.4-1.9 3.8-2 4.9-0.2 10-0.4 14.9 0.1 1.6 0.1 4 1.8 4.4 3.2 1.1 3.7 3 5.1 6.8 4.6 2.2-0.2 4.5 0 7.4 0-6.2-15.9-12.3-30.9-17.8-46.2-2-5.3-5.7-3.8-9.2-4.2-3.7-0.4-5.6 0.9-7 4.5-5.8 15.2-12 30.3-18 45.4zm67-18.1c0-10.4 0-20.8 0-31.3-4 0-7.3 0-10.8 0 0 16.7 0 33 0 49.5 3.7 0 7.1 0 10.8 0 0-6 0-11.6 0-18.2zm18.8 9.9c0-13.7 0-27.5 0-41.3-4 0-7.2 0-10.7 0 0 16.7 0 33 0 49.6 3.6 0 7 0 10.7 0 0-2.7 0-5 0-8.3z"/><path class="c" d="m220.4 289.3c1.1-2.5 1.9-4.6 2.9-7.1 6.3 2.7 12.7 5 19 1 1.9-1.2 2.7-4.1 4-6.2q-0.5-0.4-1.1-0.8c-2.1 0.8-4.1 1.9-6.3 2.4-9.3 2.2-17.3-2.7-18.4-12.5-0.9-8.3-0.2-16.8-0.2-25.6 3.5 0 6.7 0 10.9 0 0 2.5-0.1 4.9 0 7.3q0.2 7 0.6 13.9c0.2 4.1 2.2 6.5 6.6 6.5 4.6 0.1 6.6-2.4 6.8-6.7 0.4-6.8 0.6-13.6 1-20.8 3.3 0 6.7 0 10.8 0 0 2.7 0 5.4 0 8.2 0 8.5 0.1 17 0 25.4-0.3 16.5-10.6 24.8-26.7 21-3.8-0.8-8.5-0.6-9.9-6z"/><path class="d" d="m273 277.6c6-15.1 12.2-30.2 18-45.4 1.4-3.6 3.3-4.9 7-4.5 3.5 0.4 7.2-1.1 9.2 4.2 5.5 15.3 11.6 30.3 17.8 46.2-2.9 0-5.2-0.2-7.4 0-3.8 0.5-5.7-0.9-6.8-4.6-0.4-1.4-2.8-3.1-4.4-3.2-4.9-0.5-10-0.3-14.9-0.1-1.4 0.1-3.7 1.1-3.8 2-1 6.2-5.2 6.4-9.9 5.9-1.3-0.1-2.7-0.1-4.4-0.4-0.5-0.2-0.4-0.1-0.4-0.1zm31.8-21.9c-1.7-4.8-3.5-9.6-5.7-15.7-2.7 7.4-4.9 13.4-7.2 19.6 5 0 9.4 0 14.1 0-0.4-1.3-0.7-2.2-1.2-3.9z"/><path class="e" d="m206.8 277c-8.7 3.4-16.6 2.8-23.2-3.4-5.9-5.5-6.7-12.8-4.7-20.3 2.6-9.6 10.3-14.3 21.6-13.4 8.7 0.7 15.7 7.7 16.3 16.8 0.7 8.5-1.3 15.9-10 20.3zm-6.3-26.1c-3.7-1.3-7.8-0.9-9.1 2.7-1.3 3.3-1.3 7.9-0.1 11.2 0.7 1.8 5.3 3.1 8 2.9 2-0.1 4.8-2.7 5.4-4.7 1.3-4.4 1.4-9-4.2-12.1z"/><path class="e" d="m156.1 267.2c7 0 13.5 0 20.4 0 0 3.7 0 7 0 10.7-12.1 0-24 0-36.2 0 0-16.7 0-33.3 0-50.3 3.7 0 7.4 0 11.6 0 0 12 0.1 23.8 0 35.5-0.1 2.8 0.5 4.6 4.2 4.1z"/><path class="f" d="m340 260c0 6.1 0 11.7 0 17.7-3.7 0-7.1 0-10.8 0 0-16.5 0-32.8 0-49.5 3.5 0 6.8 0 10.8 0 0 10.5 0 20.9 0 31.8z"/><path class="g" d="m358.8 269.9c0 2.8 0 5.1 0 7.8-3.7 0-7.1 0-10.7 0 0-16.6 0-32.9 0-49.6 3.5 0 6.7 0 10.7 0 0 13.8 0 27.6 0 41.8z"/><path class="h" d="m305 256.1c0.3 1.3 0.6 2.2 1 3.5-4.7 0-9.1 0-14.1 0 2.3-6.2 4.5-12.2 7.2-19.6 2.2 6.1 4 10.9 5.9 16.1z"/><path class="i" d="m200.9 251c5.2 3 5.1 7.6 3.8 12-0.6 2-3.4 4.6-5.4 4.7-2.7 0.2-7.3-1.1-8-2.9-1.2-3.3-1.2-7.9 0.1-11.2 1.3-3.6 5.4-4 9.5-2.6z"/></svg>